<?xml version="1.0" ?>
<svg id="Bold" viewBox="0 0 24 24" xmlns="http://www.w3.org/2000/svg">
    <title/>
    <path fill="#FFFFFF" d="M23.92,17.23l-7.07-11A.5.5,0,0,0,16.43,6h0a.5.5,0,0,0-.42.23L10.49,15H5.35l1-2H9.85a.5.5,0,0,0,.41-.21l1.4-2a.5.5,0,0,0-.41-.79H2.65a.5.5,0,0,0-.41.21l-1.4,2a.5.5,0,0,0,.41.79H2.45L.06,17.26A.5.5,0,0,0,.5,18H12.06a.5.5,0,0,0,.42-.23l3.92-6.25L17.2,13h-.54a.5.5,0,0,0-.41.21l-1.4,2a.5.5,0,0,0,.41.79h3.92l1.25,1.79a.5.5,0,0,0,.41.21H23.5a.5.5,0,0,0,.42-.77Z"/>
    <path fill="#FFFFFF" d="M4,9h8.63a.5.5,0,0,0,.41-.21l1.4-2A.5.5,0,0,0,14.07,6H5.45A.5.5,0,0,0,5,6.21l-1.4,2A.5.5,0,0,0,4,9Z"/>
</svg>
