<?xml version="1.0"?>
<svg role="img" viewBox="0 0 24 24" xmlns="http://www.w3.org/2000/svg">
    <title/>
    <path fill="white" d="M12.503 0c-.155 0-.315.008-.479.021-4.227.333-3.106 4.807-3.17 6.298-.077 1.093-.3 1.954-1.051 3.021-.885 1.051-2.127 2.75-2.716 4.521-.278.832-.41 1.684-.287 2.489-.039.034-.076.068-.111.135-.26.268-.449.601-.662.839-.199.199-.485.267-.797.4-.313.136-.658.269-.864.681-.09.188-.136.393-.132.601 0 .199.027.401.055.536.058.399.116.729.039.97-.248.68-.279 1.146-.105 1.485.174.334.535.469.939.601.811.2 1.91.135 2.775.599.926.467 1.866.671 2.616.47.526-.115.97-.463 1.208-.945.587-.003 1.23-.269 2.26-.334.699-.058 1.574.267 2.578.199.025.135.063.199.114.334l.003.003c.391.778 1.113 1.132 1.884 1.071.771-.06 1.592-.536 2.257-1.306.631-.765 1.683-1.084 2.378-1.503.348-.199.629-.469.649-.853.023-.4-.199-.812-.714-1.377v-.097l-.003-.003c-.17-.2-.25-.535-.338-.926-.085-.401-.182-.786-.492-1.046h-.003c-.059-.054-.123-.067-.188-.135-.056-.038-.121-.062-.19-.064.431-1.278.264-2.55-.173-3.694-.533-1.41-1.465-2.638-2.175-3.483-.796-1.005-1.576-1.957-1.561-3.369.027-2.152.237-6.133-3.544-6.139zm.529 3.405h.013c.213 0 .396.062.584.198.191.135.33.332.439.533.105.259.158.459.166.724 0-.02.006-.04.006-.059v.104c-.002-.007-.004-.015-.004-.021l-.004-.024c-.002.243-.053.483-.15.706-.047.125-.119.24-.213.335-.029-.016-.057-.03-.088-.042-.105-.045-.199-.064-.285-.133-.071-.028-.145-.051-.219-.066.049-.059.145-.133.182-.198.053-.128.082-.264.088-.402v-.019c.002-.135-.018-.271-.061-.4-.045-.135-.101-.201-.183-.334-.084-.066-.167-.132-.267-.132h-.016c-.093 0-.176.03-.262.132-.095.094-.166.207-.205.334-.053.127-.084.264-.09.4v.019c.002.089.008.179.02.267-.193-.067-.438-.135-.607-.202-.01-.065-.016-.132-.018-.199v-.02c-.008-.264.043-.526.15-.769.082-.219.232-.406.43-.533.171-.129.379-.199.594-.199zm-2.962.059h.036c.142 0 .27.048.399.135.146.129.264.288.344.465.09.199.141.401.153.667v.004c.007.134.006.201-.002.266v.08c-.03.007-.056.018-.083.024-.152.055-.274.135-.393.2.012-.089.013-.179.003-.267v-.015c-.012-.133-.039-.199-.082-.333-.031-.102-.088-.193-.166-.267-.049-.045-.115-.068-.183-.064h-.021c-.071.006-.13.041-.186.132-.064.077-.105.171-.12.27-.027.108-.035.219-.023.331v.014c.012.135.037.201.081.334.045.134.097.2.165.268.011.009.021.018.034.024-.07.057-.117.07-.176.136-.037.028-.08.06-.131.068-.104-.125-.196-.26-.275-.402-.096-.21-.146-.438-.155-.667-.017-.226.011-.452.08-.668.055-.197.152-.379.283-.535.128-.133.26-.2.418-.2zm1.371 1.706c.331 0 .732.065 1.215.399.293.2.523.269 1.053.468h.003c.255.136.405.266.478.399v-.131c.073.147.078.318.016.47-.123.311-.516.644-1.064.843v.002c-.268.135-.501.333-.775.465-.276.135-.588.292-1.012.267-.152.008-.305-.015-.448-.067-.11-.06-.218-.126-.322-.198-.195-.135-.363-.332-.612-.465v-.005h-.005c-.4-.246-.616-.512-.686-.711-.069-.268-.005-.469.193-.6.224-.135.38-.271.483-.336.104-.074.143-.102.176-.131h.002v-.003c.169-.202.436-.469.839-.601.139-.036.294-.065.466-.065zm2.799 2.143c.359 1.417 1.197 3.475 1.736 4.473.286.534.855 1.659 1.102 3.024.156-.005.329.018.513.064.646-1.671-.546-3.467-1.089-3.966-.221-.201-.232-.335-.123-.335.589.534 1.365 1.572 1.646 2.757.129.535.159 1.104.021 1.67.067.028.135.061.205.067 1.032.534 1.413.938 1.23 1.537v-.043c-.061-.003-.12 0-.181 0h-.015c.151-.467-.182-.825-1.065-1.224-.915-.4-1.646-.336-1.771.465-.007.043-.012.066-.017.135-.068.023-.139.053-.209.064-.43.268-.662.669-.793 1.187-.13.533-.17 1.156-.205 1.869v.003c-.021.334-.171.838-.319 1.351-1.5 1.072-3.58 1.538-5.349.334-.111-.193-.246-.374-.402-.533-.074-.125-.168-.237-.275-.334.182 0 .338-.029.465-.067.145-.067.257-.188.314-.334.108-.267 0-.697-.345-1.163-.345-.467-.931-.995-1.788-1.521-.63-.399-.986-.87-1.15-1.396-.165-.534-.143-1.085-.015-1.645.245-1.07.873-2.11 1.274-2.763.107-.065.037.135-.408.974-.396.751-1.141 2.497-.122 3.854.038-.989.258-1.965.647-2.876.564-1.278 1.743-3.504 1.836-5.268.048.036.217.135.289.202.218.133.38.333.59.465.209.132.46.207.751.207.355 0 .721-.096 1.116-.345.136-.067.265-.16.391-.269h.003c.173-.135.4-.314.601-.553 1.115-1.555 2.171-2.02 2.371-2.068.9-.251 2.456-.18 3.209 1.043.164.232.288.505.373.754.004.01.007.022.011.031l-.004.003c.043.063.091.126.156.193.084.083.162.143.281.226-.194.204-.428.372-.628.598-.072.094-.147.193-.246.319l-.015.017c-.388.464-.862.869-1.458 1.056-.524.175-1.005.45-1.469.836-.319.292-.554.644-.743 1.015-.2.393-.372.77-.473 1.176-.059.18-.157.356-.283.488.01.005.023.01.037.015h.004c.251.185.592.296.932.296zm-1.846 3.557c-.261-.332-.694-.395-1.026-.149-.332.261-.395.694-.149 1.026.261.332.694.395 1.026.149.332-.261.395-.694.149-1.026zm-2.706 1.576c.135-.178.06-.432-.118-.566-.178-.135-.432-.059-.566.118-.135.178-.059.432.118.566.178.135.432.059.566-.118z"/>
</svg>
